<svg height="800pt" preserveAspectRatio="xMidYMid meet" viewBox="0 0 800 800" width="800pt" xmlns="../../../external.html?link=http://www.w3.org/2000/svg"><path d="m1238 7493c-40-6-114-81-127-128-15-53-15-1145-1-1197 14-48 52-94 100-118 37-19 69-20 1010-20 535 0 975-2 979-4 3-2 5-1225 5-2718-1-2984-6-2760 60-2792 47-22 189-20 243 4 62 27 127 75 206 149 140 133 948 947 973 981 35 48 58 95 85 171l23 64 1 2070 1 2070 985 5c905 5 987 6 1015 22 44 24 81 72 94 118 7 27 10 233 8 619l-3 579-30 43c-17 24-46 52-65 64l-35 20-2750 1c-1512 0-2762-1-2777-3z" transform="matrix(.1 0 0 -.1 0 800)"/></svg>